<svg width="16" height="16" viewBox="0 0 16 16" fill="none" xmlns="http://www.w3.org/2000/svg">
<path fill-rule="evenodd" clip-rule="evenodd" d="M13.2499 1.87512L11.4999 3.62509L9.74996 1.87512L8 3.62509L9.74996 5.37505L2.7501 12.3749V14.1249H4.50007L11.4999 7.12502L13.2499 8.87499L14.9999 7.12502L13.2499 5.37505L14.9999 3.62509L13.2499 1.87512ZM2.74997 1.87523L1 3.62519L2.74997 5.37516L1 7.12513L2.74997 8.87509L4.48721 7.13785L5.37492 8.00011L7.12488 6.25014L6.24334 5.38171L7.99986 3.62519L6.2499 1.87523L4.49993 3.62519L2.74997 1.87523ZM11.4999 14.1249L8.86179 11.5075L10.6249 9.75755L13.2499 12.3749V14.1249H11.4999Z" fill="#7B7A8E"/>
</svg>
